# xmcd
#
# Track frame offsets:
#	150
#	14095
#	36569
#	50219
#	61161
#	82433
#	106502
#	121179
#	134427
#	150804
#	164689
#	177821
#	195967
#	211293
#	226173
#	238864
#	254118
#	271452
#	290988
#	304393
#
# Disc length: 4242 seconds
#
# Revision: 1
# Processed by: cddbd v1.5.2PL0 Copyright (c) Steve Scherf et al.
# Submitted via: audiograbber 1.83.01
#
DISCID=2e109014
DTITLE=joao neto e frederico - so modao
DYEAR=1900
DGENRE=
TTITLE0=boate azul
TTITLE1=dama de vermelho/fruto especial/esta noite eu queria que o mundo acabas
TTITLE1=se
TTITLE2=revelaçao
TTITLE3=chalana
TTITLE4=bijuteria
TTITLE5=canoeiro/peito sadio
TTITLE6=o cara errado
TTITLE7=sublime renuncia
TTITLE8=de igual pra igual
TTITLE9=se entrega amor
TTITLE10=saudade de minha terra
TTITLE11=galopeira/va pro inferno com seu amor/pedaço de poema
TTITLE12=brigas
TTITLE13=e pra valer
TTITLE14=goias e mais
TTITLE15=majestade o sabia
TTITLE16=a sua vista 
TTITLE17=mais uma noite sem voce/cade voce
TTITLE18=pagode em brasilia
TTITLE19=ipe florido
EXTD=
EXTT0=
EXTT1=
EXTT2=
EXTT3=
EXTT4=
EXTT5=
EXTT6=
EXTT7=
EXTT8=
EXTT9=
EXTT10=
EXTT11=
EXTT12=
EXTT13=
EXTT14=
EXTT15=
EXTT16=
EXTT17=
EXTT18=
EXTT19=
PLAYORDER=
